<?xml version="1.0" encoding="UTF-8"?>
<svg version="1.1" xmlns="http://www.w3.org/2000/svg" width="191" height="153">
<path d="M0 0 C9.3740625 -0.12375 9.3740625 -0.12375 18.9375 -0.25 C20.89163818 -0.28641602 22.84577637 -0.32283203 24.85913086 -0.36035156 C26.43602404 -0.37205158 28.01292946 -0.38224028 29.58984375 -0.390625 C30.38588013 -0.41108887 31.1819165 -0.43155273 32.0020752 -0.45263672 C38.4919795 -0.45660426 44.70719144 1.00618485 49.63121033 5.48309326 C53.30260584 9.71941016 54.35708539 13.29144789 54.28515625 18.87109375 C53.67296288 23.44157847 51.26067493 26.8505611 47.875 29.9375 C46 31 46 31 44 31 C44 31.66 44 32.32 44 33 C44.721875 33.061875 45.44375 33.12375 46.1875 33.1875 C50.93205578 34.55814945 53.33669536 38.00504304 56 42 C57.62182857 48.1824593 57.14000752 53.42862478 54 59 C50.14901114 63.84124313 44.90524303 67.40671704 38.7043457 68.34875488 C36.21017416 68.45933076 33.74578349 68.45111441 31.25 68.390625 C30.45207031 68.38659668 29.65414062 68.38256836 28.83203125 68.37841797 C25.8877826 68.35769171 22.94386506 68.301848 20 68.25 C13.4 68.1675 6.8 68.085 0 68 C0 45.56 0 23.12 0 0 Z M19 15 C19 18.96 19 22.92 19 27 C20.7325 27.061875 22.465 27.12375 24.25 27.1875 C25.22453125 27.22230469 26.1990625 27.25710937 27.203125 27.29296875 C30.37468742 26.96075202 31.67040307 26.11327721 34 24 C33.73606499 20.56769552 33.73606499 20.56769552 33 17 C29.57905758 14.71937172 28.31812778 14.78074993 24.3125 14.875 C22.559375 14.91625 20.80625 14.9575 19 15 Z M19 39 C19 43.62 19 48.24 19 53 C20.8975 53.04125 22.795 53.0825 24.75 53.125 C25.81734375 53.14820313 26.8846875 53.17140625 27.984375 53.1953125 C30.95022828 53.00322356 32.55204664 52.63578192 35 51 C36.39935013 48.20129973 36.25265405 46.09501208 36 43 C34.06539976 40.19482966 32.2552406 39.63041631 29 39 C27.25113019 38.93375493 25.49997252 38.91447405 23.75 38.9375 C21.39875 38.9684375 21.39875 38.9684375 19 39 Z " fill="#4C4D50" transform="translate(132,22)"/>
<path d="M0 0 C8.91 0 17.82 0 27 0 C27 1.65 27 3.3 27 5 C26.67 5.33 26.34 5.66 26 6 C26.38207951 12.06700479 28.46669702 16.89121575 31 22.36328125 C31.39574219 23.23647507 31.79148438 24.10966888 32.19921875 25.00932312 C33.45776433 27.78095526 34.72869937 30.5466988 36 33.3125 C36.85498217 35.19038413 37.70915742 37.06863587 38.5625 38.94726562 C42.18345463 47.01989548 42.18345463 47.01989548 46 55 C46.46235002 62.1664253 46.46235002 62.1664253 44.83630371 65.09803772 C43 67 43 67 40.41955566 67.50120544 C38.87092834 67.5014547 38.87092834 67.5014547 37.29101562 67.50170898 C35.53404358 67.51578041 35.53404358 67.51578041 33.74157715 67.53013611 C32.47591919 67.51890213 31.21026123 67.50766815 29.90625 67.49609375 C28.60804321 67.49754898 27.30983643 67.49900421 25.97229004 67.50050354 C23.22497287 67.50188782 20.47817759 67.48932598 17.73095703 67.46655273 C14.21000101 67.43816695 10.6899121 67.4409045 7.16889191 67.45364285 C3.81042035 67.46227149 0.45220692 67.4471544 -2.90625 67.43359375 C-4.17190796 67.43652939 -5.43756592 67.43946503 -6.74157715 67.44248962 C-7.91289185 67.42980545 -9.08420654 67.41712128 -10.29101562 67.40405273 C-11.83964294 67.39594826 -11.83964294 67.39594826 -13.41955566 67.38768005 C-16 67 -16 67 -17.82998657 65.69892883 C-19.90314218 62.68858404 -19.52154892 59.45513387 -19 56 C-17.97642035 52.66877056 -16.58683957 49.5541628 -15.1328125 46.390625 C-14.73802704 45.50139343 -14.34324158 44.61216187 -13.93649292 43.69598389 C-12.67975284 40.87426251 -11.4026975 38.06228402 -10.125 35.25 C-9.27340308 33.34564918 -8.423129 31.44070623 -7.57421875 29.53515625 C-1.51491976 15.97219829 -1.51491976 15.97219829 0.10574341 12.91229248 C1.23921834 10.48845172 1.21440629 8.64434425 1 6 C0.67 5.67 0.34 5.34 0 5 C0 3.35 0 1.7 0 0 Z M13 19 C13.33 20.65 13.66 22.3 14 24 C15.32 23.34 16.64 22.68 18 22 C17.67 21.01 17.34 20.02 17 19 C15.68 19 14.36 19 13 19 Z M18 29 C17.34 30.32 16.68 31.64 16 33 C18.475 33.495 18.475 33.495 21 34 C21.33 33.01 21.66 32.02 22 31 C20.68 30.34 19.36 29.68 18 29 Z M-4 44 C-6.50286204 48.36981776 -8.80462934 52.85037225 -8 58 C-6.77847338 59.45022944 -6.77847338 59.45022944 -3.12280273 59.11352539 C-1.39305833 59.11336621 0.33669081 59.10766849 2.06640625 59.09765625 C2.97502914 59.0962413 3.88365204 59.09482635 4.81980896 59.09336853 C7.73407221 59.08775193 10.64825981 59.07519665 13.5625 59.0625 C15.53320202 59.05748714 17.50390524 59.05292386 19.47460938 59.04882812 C24.31643559 59.03777711 29.15820495 59.02050138 34 59 C34.95813391 54.90181353 34.9404376 53.00028239 33.0625 49.1875 C32.68222656 48.39730469 32.30195312 47.60710937 31.91015625 46.79296875 C31.60980469 46.20128906 31.30945313 45.60960937 31 45 C30.41734375 45.15855469 29.8346875 45.31710938 29.234375 45.48046875 C21.90040462 47.18574508 17.28554364 45.61814907 11 42 C5.11261276 38.81520386 0.71125627 38.91680244 -4 44 Z " fill="#4C4D50" transform="translate(77,22)"/>
<path d="M0 0 C6.27 0 12.54 0 19 0 C19 17.49 19 34.98 19 53 C28.24 53 37.48 53 47 53 C47 57.95 47 62.9 47 68 C31.49 68 15.98 68 0 68 C0 45.56 0 23.12 0 0 Z " fill="#4C4D50" transform="translate(4,22)"/>
<path d="M0 0 C3.2437025 2.43277687 4.68700289 3.91654848 5.8125 7.8125 C5.874375 8.534375 5.93625 9.25625 6 10 C4.68 10 3.36 10 2 10 C1.7525 9.38125 1.505 8.7625 1.25 8.125 C-0.2908453 5.50556299 -1.08980346 4.86519357 -4 4 C-7.46110275 4.1821633 -10.03529402 4.39705876 -13 6.25 C-14.19723455 8.01399243 -14.19723455 8.01399243 -14.01953125 10.41796875 C-13.18897182 13.35304755 -13.18897182 13.35304755 -9.76171875 14.66015625 C-8.41072397 15.14768337 -7.05209337 15.61444362 -5.6875 16.0625 C3.05326469 19.03153234 3.05326469 19.03153234 6 23 C6.79925194 26.08125402 6.65362283 28.89252197 6 32 C3.47031526 35.28175318 1.92268669 36.69243777 -2 38 C-7.05083759 38.53029448 -10.90474571 38.54762715 -15.5 36.25 C-17.81766703 34.16409967 -19.05368212 32.93358541 -20 30 C-20 29.01 -20 28.02 -20 27 C-17.625 27.25 -17.625 27.25 -15 28 C-13.8125 30 -13.8125 30 -13 32 C-9.8039073 33.59804635 -6.47628983 33.36411731 -3 33 C-0.40130685 32.13575439 -0.40130685 32.13575439 1 30 C1.33380814 26.37436186 1.33380814 26.37436186 1 23 C-0.051875 22.76216797 -0.051875 22.76216797 -1.125 22.51953125 C-7.42353808 20.97057012 -12.90478757 19.12793948 -18 15 C-19.41000664 12.17998673 -19.24548451 10.12992745 -19 7 C-17.54739221 3.32575677 -16.28514359 2.17108616 -12.875 0.125 C-8.51787859 -1.48122696 -4.41938035 -1.35726288 0 0 Z " fill="#4C4D50" transform="translate(181,105)"/>
<path d="M0 0 C1.65625 1.23828125 1.65625 1.23828125 4.15625 3.98828125 C4.53125 6.80078125 4.53125 6.80078125 4.15625 8.98828125 C2.83625 8.98828125 1.51625 8.98828125 0.15625 8.98828125 C-0.276875 8.18390625 -0.71 7.37953125 -1.15625 6.55078125 C-2.67611117 3.64358483 -2.67611117 3.64358483 -6.21875 2.98828125 C-10.21268965 2.98828125 -11.89431058 3.30697269 -14.84375 5.98828125 C-15.67708333 8.48828125 -15.67708333 8.48828125 -14.84375 10.98828125 C-11.49298543 13.34158115 -8.16602795 14.64219666 -4.28125 15.86328125 C0.15425933 17.44739173 2.99726038 18.56749297 5.15625 22.98828125 C5.75478879 27.1780528 5.65380673 29.1886365 3.40625 32.80078125 C-0.12397962 36.23294894 -2.87011046 37.27807953 -7.78125 37.30078125 C-11.9499478 37.20882468 -14.57397221 36.76263816 -17.84375 33.98828125 C-20.66412114 30.97340176 -20.84375 30.32105791 -20.84375 25.98828125 C-19.52375 25.98828125 -18.20375 25.98828125 -16.84375 25.98828125 C-15.21875 28.42578125 -15.21875 28.42578125 -13.84375 30.98828125 C-10.6426342 32.58883915 -7.31740202 32.48158094 -3.84375 31.98828125 C-1.1722096 30.48548949 -1.1722096 30.48548949 0.15625 27.98828125 C0.15867922 25.43195395 0.15867922 25.43195395 -0.84375 22.98828125 C-2.92663713 21.61985541 -2.92663713 21.61985541 -5.53125 20.86328125 C-6.43359375 20.54230469 -7.3359375 20.22132812 -8.265625 19.890625 C-9.11640625 19.59285156 -9.9671875 19.29507813 -10.84375 18.98828125 C-18.19309498 15.6476699 -18.19309498 15.6476699 -19.84375 12.98828125 C-20.36109062 8.40612151 -20.48939183 6.13057063 -18.21875 2.11328125 C-12.98732069 -2.56747129 -6.18684546 -3.39490037 0 0 Z " fill="#4C4D50" transform="translate(24.84375,106.01171875)"/>
<path d="M0 0 C2.97582969 2.56059764 4.26509994 4.67747762 5.6875 8.3125 C5.6875 8.9725 5.6875 9.6325 5.6875 10.3125 C3.375 10.125 3.375 10.125 0.6875 9.3125 C0.254375 8.508125 -0.17875 7.70375 -0.625 6.875 C-2.46591394 4.07953809 -2.99828295 3.74764493 -6.0625 2.8125 C-10.55634857 1.95179972 -13.40529206 2.86091855 -17.3125 5.3125 C-21.21246633 10.34471462 -20.97452443 16.21824767 -20.3125 22.3125 C-19.04264733 26.05522367 -18.04763148 27.71644745 -15 30.1875 C-11.74314391 31.55083511 -9.81579831 31.81297119 -6.3125 31.3125 C-2.43564321 29.22496173 0.17691618 27.54213468 1.6875 23.3125 C3.0075 23.3125 4.3275 23.3125 5.6875 23.3125 C5.25284864 28.23854873 3.09123025 30.83141224 -0.3125 34.3125 C-4.36704522 36.72331067 -8.69690906 36.89284935 -13.3125 36.3125 C-18.7409008 34.32904586 -21.3883012 31.39260239 -24.3984375 26.57421875 C-26.66276389 20.97146242 -26.17504245 13.51762933 -24.625 7.7578125 C-22.2414159 2.49406427 -18.74534481 -0.19993392 -13.4375 -2.5 C-8.35177526 -2.94874042 -4.48890833 -2.28680235 0 0 Z " fill="#4C4D50" transform="translate(120.3125,106.6875)"/>
<path d="M0 0 C2.64575195 1.04492188 2.64575195 1.04492188 4.40673828 4.35546875 C4.95144879 5.81720482 5.47375735 7.28741315 5.9777832 8.76367188 C6.25925705 9.53674683 6.5407309 10.30982178 6.83073425 11.10632324 C7.72585166 13.57941246 8.59199231 16.06159621 9.45825195 18.54492188 C10.05993387 20.21875924 10.66342802 21.89194637 11.26879883 23.56445312 C15.64575195 35.72733617 15.64575195 35.72733617 15.64575195 37.04492188 C13.99575195 37.04492188 12.34575195 37.04492188 10.64575195 37.04492188 C9.32575195 33.74492187 8.00575195 30.44492188 6.64575195 27.04492188 C2.02575195 27.04492188 -2.59424805 27.04492188 -7.35424805 27.04492188 C-8.67424805 30.34492188 -9.99424805 33.64492187 -11.35424805 37.04492188 C-12.67424805 37.04492188 -13.99424805 37.04492188 -15.35424805 37.04492188 C-14.72708357 32.40895399 -13.50169079 28.31733151 -11.88549805 23.93164062 C-11.64512817 23.27662064 -11.4047583 22.62160065 -11.15710449 21.94673157 C-10.65193101 20.57350384 -10.14420142 19.20121396 -9.6340332 17.82983398 C-8.8509117 15.723448 -8.07659651 13.6139775 -7.3034668 11.50390625 C-3.08273294 0.05882224 -3.08273294 0.05882224 0 0 Z M-1.35424805 7.04492188 C-3.00424805 11.99492188 -4.65424805 16.94492188 -6.35424805 22.04492188 C-2.39424805 22.04492188 1.56575195 22.04492188 5.64575195 22.04492188 C3.99575195 17.09492187 2.34575195 12.14492187 0.64575195 7.04492188 C-0.01424805 7.04492188 -0.67424805 7.04492188 -1.35424805 7.04492188 Z " fill="#4C4D50" transform="translate(77.354248046875,104.955078125)"/>
<path d="M0 0 C7.26 0 14.52 0 22 0 C22 1.32 22 2.64 22 4 C16.06 4 10.12 4 4 4 C4 8.29 4 12.58 4 17 C9.61 17 15.22 17 21 17 C21 18.32 21 19.64 21 21 C15.39 21 9.78 21 4 21 C4 25.29 4 29.58 4 34 C9.94 34 15.88 34 22 34 C22 34.99 22 35.98 22 37 C14.74 37 7.48 37 0 37 C0 24.79 0 12.58 0 0 Z " fill="#4C4D50" transform="translate(133,105)"/>
<path d="M0 0 C17 0 17 0 23 4 C25.34054935 7.66346855 25.20375777 10.90466432 24.55078125 15.06640625 C23.71149195 18.01284741 22.13891829 19.86108171 20 22 C15.53794887 24.23102556 8.78092876 23.04346299 4 23 C4 27.62 4 32.24 4 37 C2.68 37 1.36 37 0 37 C0 24.79 0 12.58 0 0 Z M4 4 C4 9.28 4 14.56 4 20 C11.25550409 20.33755618 11.25550409 20.33755618 18 18 C20.42520546 15.57479454 20.68564441 14.37932259 21 11 C19.93600927 7.18736653 19.3748349 6.24988993 16 4 C11.98500069 3.73125841 8.02862593 3.91336288 4 4 Z " fill="#4B4D50" transform="translate(37,105)"/>
</svg>
