<svg width="14" height="16" viewBox="0 0 14 16" fill="none" xmlns="http://www.w3.org/2000/svg">
<path d="M7.03062 0.5C5.37098 0.5 3.77932 1.13214 2.60578 2.25736C1.43224 3.38258 0.772949 4.9087 0.772949 6.5C0.772949 10.55 6.28752 15.125 6.52218 15.32C6.66387 15.4362 6.84418 15.5 7.03062 15.5C7.21706 15.5 7.39737 15.4362 7.53905 15.32C7.81283 15.125 13.2883 10.55 13.2883 6.5C13.2883 4.9087 12.629 3.38258 11.4555 2.25736C10.2819 1.13214 8.69025 0.5 7.03062 0.5ZM7.03062 13.7375C5.36451 12.2375 2.33737 9.005 2.33737 6.5C2.33737 5.30653 2.83183 4.16193 3.71199 3.31802C4.59214 2.47411 5.78589 2 7.03062 2C8.27535 2 9.46909 2.47411 10.3492 3.31802C11.2294 4.16193 11.7239 5.30653 11.7239 6.5C11.7239 9.005 8.69672 12.245 7.03062 13.7375ZM7.03062 3.5C6.41179 3.5 5.80687 3.67595 5.29233 4.00559C4.7778 4.33524 4.37677 4.80377 4.13995 5.35195C3.90314 5.90013 3.84118 6.50333 3.9619 7.08527C4.08263 7.66721 4.38062 8.20176 4.8182 8.62132C5.25577 9.04088 5.81328 9.3266 6.42021 9.44236C7.02715 9.55811 7.65625 9.4987 8.22797 9.27164C8.79969 9.04458 9.28835 8.66006 9.63215 8.16671C9.97595 7.67336 10.1595 7.09334 10.1595 6.5C10.1595 5.70435 9.82981 4.94129 9.24304 4.37868C8.65627 3.81607 7.86044 3.5 7.03062 3.5ZM7.03062 8C6.72121 8 6.41874 7.91203 6.16147 7.7472C5.90421 7.58238 5.70369 7.34811 5.58528 7.07403C5.46688 6.79994 5.4359 6.49834 5.49626 6.20737C5.55662 5.91639 5.70562 5.64912 5.92441 5.43934C6.1432 5.22956 6.42195 5.0867 6.72542 5.02882C7.02888 4.97094 7.34343 5.00065 7.62929 5.11418C7.91515 5.22771 8.15948 5.41997 8.33138 5.66665C8.50328 5.91332 8.59503 6.20333 8.59503 6.5C8.59503 6.89783 8.43021 7.27936 8.13683 7.56066C7.84344 7.84197 7.44553 8 7.03062 8Z" fill="#1D0129" fill-opacity="0.48"/>
</svg>
